<svg version="1.1" id="Layer_1" xmlns="http://www.w3.org/2000/svg" xmlns:xlink="http://www.w3.org/1999/xlink" x="0px" y="0px"
	 width="100%" viewBox="0 0 350 350" enable-background="new 0 0 350 350" xml:space="preserve">
<path fill="#000000" opacity="1.000000" stroke="none" 
	d="
M169.000000,351.000000 
	C112.666679,351.000000 56.833355,351.000000 1.000022,351.000000 
	C1.000015,234.333359 1.000015,117.666725 1.000008,1.000069 
	C117.666618,1.000046 234.333237,1.000046 350.999878,1.000023 
	C350.999939,117.666595 350.999939,234.333191 350.999969,350.999878 
	C290.500000,351.000000 230.000000,351.000000 169.000000,351.000000 
M218.309418,96.614151 
	C216.164490,89.035606 212.340332,85.892700 206.977646,86.990349 
	C202.810898,87.843231 201.476166,92.618500 202.190216,99.974823 
	C202.549545,103.676826 204.098709,107.263344 204.832382,111.540833 
	C191.311234,107.152428 179.451569,109.916428 170.625885,121.096893 
	C163.617508,129.975220 157.596573,139.650345 151.367920,149.123398 
	C135.988220,172.514099 121.284409,196.319595 109.667145,221.852844 
	C105.503410,231.004181 101.637939,240.368500 101.975861,250.811996 
	C102.196213,257.622009 108.138229,262.597809 115.342987,260.441101 
	C129.424133,256.226044 141.344238,248.150604 153.198364,240.107544 
	C163.947479,232.814194 174.095337,224.582520 184.144669,216.322174 
	C199.439224,203.750381 214.815247,191.227249 229.387589,177.845932 
	C238.329132,169.635208 243.158356,158.973251 239.997482,146.190979 
	C239.420853,143.859161 238.698334,141.563400 238.720200,139.082092 
	C244.917343,140.116653 251.293121,142.176010 257.219574,138.892426 
	C259.626770,137.558685 262.085724,134.696457 262.599457,132.143082 
	C262.936249,130.469116 260.158081,127.666145 258.172760,126.165642 
	C256.103424,124.601631 253.311005,123.994316 251.226486,122.385201 
	C252.930054,121.021744 254.633621,119.658279 256.337189,118.294815 
	C256.201538,117.731331 256.065857,117.167847 255.930206,116.604362 
	C253.658813,116.381195 251.387436,116.158028 249.364304,115.239029 
	C253.271790,107.129173 250.157562,102.966164 240.337265,102.206024 
	C241.082855,96.794968 237.218491,92.636070 232.217712,94.136703 
	C229.567245,94.932060 227.396530,97.326057 225.004669,98.158966 
	C225.014130,97.664696 225.168777,97.115753 225.006912,96.686005 
	C224.428467,95.150047 223.742661,93.654533 223.097458,92.143723 
	C221.978607,93.298248 220.841614,94.436043 219.751999,95.617538 
	C219.426743,95.970192 219.234177,96.445198 218.309418,96.614151 
z"/>
<path fill="#FD8D2D" opacity="1.000000" stroke="none" 
	d="
M238.043182,139.250977 
	C238.698334,141.563400 239.420853,143.859161 239.997482,146.190979 
	C243.158356,158.973251 238.329132,169.635208 229.387589,177.845932 
	C214.815247,191.227249 199.439224,203.750381 184.144669,216.322174 
	C174.095337,224.582520 163.947479,232.814194 153.198364,240.107544 
	C141.344238,248.150604 129.424133,256.226044 115.342987,260.441101 
	C108.138229,262.597809 102.196213,257.622009 101.975861,250.811996 
	C101.637939,240.368500 105.503410,231.004181 109.667145,221.852844 
	C121.284409,196.319595 135.988220,172.514099 151.367920,149.123398 
	C157.596573,139.650345 163.617508,129.975220 170.625885,121.096893 
	C179.451569,109.916428 191.311234,107.152428 205.269135,111.390625 
	C209.778625,117.501808 213.851349,123.763206 218.099747,130.320068 
	C224.864670,133.494019 231.453934,136.372498 238.043182,139.250977 
M184.945190,190.835831 
	C184.945190,190.835831 184.743027,190.849762 184.743027,190.849762 
	C184.743027,190.849762 184.953354,191.034912 185.119537,191.695023 
	C189.269379,195.695877 192.898331,200.628159 199.136230,200.895309 
	C199.391739,200.445709 199.647232,199.996109 199.902725,199.546494 
	C194.945419,196.683594 189.988113,193.820709 184.945190,190.835831 
M164.055283,134.940323 
	C165.761414,137.258087 167.467560,139.575836 169.173691,141.893600 
	C169.667557,141.524750 170.161423,141.155914 170.655289,140.787064 
	C169.007874,138.411835 167.381638,136.020782 165.653793,133.705582 
	C165.562256,133.582932 164.611450,134.101547 164.055283,134.940323 
M182.069229,188.411453 
	C182.069229,188.411453 181.873062,188.546188 181.873062,188.546188 
	C181.873062,188.546188 182.123337,188.532639 182.069229,188.411453 
M175.526413,146.504028 
	C175.526413,146.504028 175.478348,146.522156 175.526413,146.504028 
z"/>
<path fill="#68BD11" opacity="1.000000" stroke="none" 
	d="
M217.924072,130.024597 
	C213.851349,123.763206 209.778625,117.501808 205.407867,111.071251 
	C204.098709,107.263344 202.549545,103.676826 202.190216,99.974823 
	C201.476166,92.618500 202.810898,87.843231 206.977646,86.990349 
	C212.340332,85.892700 216.164490,89.035606 218.655273,97.173538 
	C219.717972,102.589844 220.434799,107.446762 221.269165,113.100060 
	C222.665558,107.835091 223.837402,103.416733 225.009247,98.998367 
	C227.396530,97.326057 229.567245,94.932060 232.217712,94.136703 
	C237.218491,92.636070 241.082855,96.794968 240.144806,102.915939 
	C237.959396,109.410919 235.966476,115.195992 233.913940,121.015671 
	C233.854355,121.050278 233.855164,121.224136 233.855164,121.224136 
	C233.855164,121.224136 234.016861,121.023560 234.385239,120.952744 
	C239.541092,119.232910 244.328568,117.583885 249.116043,115.934868 
	C251.387436,116.158028 253.658813,116.381195 255.930206,116.604362 
	C256.065857,117.167847 256.201538,117.731331 256.337189,118.294815 
	C254.633621,119.658279 252.930054,121.021744 250.684006,122.762527 
	C239.899734,127.762192 229.317642,130.792068 217.924072,130.024597 
z"/>
<path fill="#569E09" opacity="1.000000" stroke="none" 
	d="
M218.099747,130.320068 
	C229.317642,130.792068 239.899734,127.762192 250.488129,123.054283 
	C253.311005,123.994316 256.103424,124.601631 258.172760,126.165642 
	C260.158081,127.666145 262.936249,130.469116 262.599457,132.143082 
	C262.085724,134.696457 259.626770,137.558685 257.219574,138.892426 
	C251.293121,142.176010 244.917343,140.116653 238.381683,139.166534 
	C231.453934,136.372498 224.864670,133.494019 218.099747,130.320068 
z"/>
<path fill="#559F09" opacity="1.000000" stroke="none" 
	d="
M249.240173,115.586945 
	C244.328568,117.583885 239.541092,119.232910 234.375732,120.940895 
	C233.997849,120.999855 233.973526,120.981056 233.973541,120.981064 
	C235.966476,115.195992 237.959396,109.410919 240.033661,103.250320 
	C250.157562,102.966164 253.271790,107.129173 249.240173,115.586945 
z"/>
<path fill="#559F09" opacity="1.000000" stroke="none" 
	d="
M225.006958,98.578674 
	C223.837402,103.416733 222.665558,107.835091 221.269165,113.100060 
	C220.434799,107.446762 219.717972,102.589844 218.990982,97.298538 
	C219.234177,96.445198 219.426743,95.970192 219.751999,95.617538 
	C220.841614,94.436043 221.978607,93.298248 223.097458,92.143723 
	C223.742661,93.654533 224.428467,95.150047 225.006912,96.686005 
	C225.168777,97.115753 225.014130,97.664696 225.006958,98.578674 
z"/>
<path fill="#DB7B28" opacity="1.000000" stroke="none" 
	d="
M185.030807,190.957809 
	C189.988113,193.820709 194.945419,196.683594 199.902725,199.546494 
	C199.647232,199.996109 199.391739,200.445709 199.136230,200.895309 
	C192.898331,200.628159 189.269379,195.695877 185.056885,191.346771 
	C184.994247,190.998535 185.030807,190.957809 185.030807,190.957809 
z"/>
<path fill="#DB7B28" opacity="1.000000" stroke="none" 
	d="
M164.057983,134.630981 
	C164.611450,134.101547 165.562256,133.582932 165.653793,133.705582 
	C167.381638,136.020782 169.007874,138.411835 170.655289,140.787064 
	C170.161423,141.155914 169.667557,141.524750 169.173691,141.893600 
	C167.467560,139.575836 165.761414,137.258087 164.057983,134.630981 
z"/>
<path fill="#DB7B28" opacity="1.000000" stroke="none" 
	d="
M182.096283,188.472046 
	C182.123337,188.532639 181.873062,188.546188 181.873062,188.546188 
	C181.873062,188.546188 182.069229,188.411453 182.096283,188.472046 
z"/>
<path fill="#DB7B28" opacity="1.000000" stroke="none" 
	d="
M175.502380,146.513092 
	C175.478348,146.522156 175.526413,146.504028 175.502380,146.513092 
z"/>
<path fill="#DB7B28" opacity="1.000000" stroke="none" 
	d="
M184.973801,191.016724 
	C184.953354,191.034912 184.743027,190.849762 184.743027,190.849762 
	C184.743027,190.849762 184.945190,190.835831 184.988007,190.896820 
	C185.030807,190.957809 184.994247,190.998535 184.973801,191.016724 
z"/>
<path fill="#559F09" opacity="1.000000" stroke="none" 
	d="
M234.007355,121.011703 
	C234.016861,121.023560 233.855164,121.224136 233.855164,121.224136 
	C233.855164,121.224136 233.854355,121.050278 233.913940,121.015671 
	C233.973526,120.981056 233.997849,120.999855 234.007355,121.011703 
z"/>
</svg>